<?xml version="1.0" encoding="utf-8" ?>
<svg baseProfile="tiny" height="100%" version="1.2" width="100%" xmlns="http://www.w3.org/2000/svg" xmlns:ev="http://www.w3.org/2001/xml-events" xmlns:xlink="http://www.w3.org/1999/xlink"><defs /><line stroke="rgb(0%,0%,0%)" stroke-width="1" x1="2500.0" x2="2500.0" y1="5000.0" y2="4814.8148" /><line stroke="rgb(0%,0%,0%)" stroke-width="1" x1="2561.7284" x2="2438.2716" y1="4938.2716" y2="4938.2716" /><line stroke="rgb(0%,0%,0%)" stroke-width="1" x1="2685.1852" x2="2500.0" y1="4814.8148" y2="4814.8148" /><line stroke="rgb(0%,0%,0%)" stroke-width="1" x1="2623.4568" x2="2623.4568" y1="4753.0864" y2="4876.5432" /><line stroke="rgb(0%,0%,0%)" stroke-width="1" x1="2314.8148" x2="2500.0" y1="4814.8148" y2="4814.8148" /><line stroke="rgb(0%,0%,0%)" stroke-width="1" x1="2376.5432" x2="2376.5432" y1="4876.5432" y2="4753.0864" /><line stroke="rgb(0%,0%,0%)" stroke-width="1" x1="2500.0" x2="2500.0" y1="4444.4444" y2="4814.8148" /><line stroke="rgb(0%,0%,0%)" stroke-width="1" x1="2376.5432" x2="2623.4568" y1="4567.9012" y2="4567.9012" /><line stroke="rgb(0%,0%,0%)" stroke-width="1" x1="3055.5556" x2="2870.3704" y1="4444.4444" y2="4444.4444" /><line stroke="rgb(0%,0%,0%)" stroke-width="1" x1="2993.8272" x2="2993.8272" y1="4382.716" y2="4506.1728" /><line stroke="rgb(0%,0%,0%)" stroke-width="1" x1="2870.3704" x2="2870.3704" y1="4259.2593" y2="4444.4444" /><line stroke="rgb(0%,0%,0%)" stroke-width="1" x1="2808.642" x2="2932.0988" y1="4320.9877" y2="4320.9877" /><line stroke="rgb(0%,0%,0%)" stroke-width="1" x1="2870.3704" x2="2870.3704" y1="4629.6296" y2="4444.4444" /><line stroke="rgb(0%,0%,0%)" stroke-width="1" x1="2932.0988" x2="2808.642" y1="4567.9012" y2="4567.9012" /><line stroke="rgb(0%,0%,0%)" stroke-width="1" x1="2500.0" x2="2870.3704" y1="4444.4444" y2="4444.4444" /><line stroke="rgb(0%,0%,0%)" stroke-width="1" x1="2623.4568" x2="2623.4568" y1="4567.9012" y2="4320.9877" /><line stroke="rgb(0%,0%,0%)" stroke-width="1" x1="1944.4444" x2="2129.6296" y1="4444.4444" y2="4444.4444" /><line stroke="rgb(0%,0%,0%)" stroke-width="1" x1="2006.1728" x2="2006.1728" y1="4506.1728" y2="4382.716" /><line stroke="rgb(0%,0%,0%)" stroke-width="1" x1="2129.6296" x2="2129.6296" y1="4629.6296" y2="4444.4444" /><line stroke="rgb(0%,0%,0%)" stroke-width="1" x1="2191.358" x2="2067.9012" y1="4567.9012" y2="4567.9012" /><line stroke="rgb(0%,0%,0%)" stroke-width="1" x1="2129.6296" x2="2129.6296" y1="4259.2593" y2="4444.4444" /><line stroke="rgb(0%,0%,0%)" stroke-width="1" x1="2067.9012" x2="2191.358" y1="4320.9877" y2="4320.9877" /><line stroke="rgb(0%,0%,0%)" stroke-width="1" x1="2500.0" x2="2129.6296" y1="4444.4444" y2="4444.4444" /><line stroke="rgb(0%,0%,0%)" stroke-width="1" x1="2376.5432" x2="2376.5432" y1="4320.9877" y2="4567.9012" /><line stroke="rgb(0%,0%,0%)" stroke-width="1" x1="2500.0" x2="2500.0" y1="3333.3333" y2="3703.7037" /><line stroke="rgb(0%,0%,0%)" stroke-width="1" x1="2376.5432" x2="2623.4568" y1="3456.7901" y2="3456.7901" /><line stroke="rgb(0%,0%,0%)" stroke-width="1" x1="2129.6296" x2="2500.0" y1="3703.7037" y2="3703.7037" /><line stroke="rgb(0%,0%,0%)" stroke-width="1" x1="2253.0864" x2="2253.0864" y1="3827.1605" y2="3580.2469" /><line stroke="rgb(0%,0%,0%)" stroke-width="1" x1="2870.3704" x2="2500.0" y1="3703.7037" y2="3703.7037" /><line stroke="rgb(0%,0%,0%)" stroke-width="1" x1="2746.9136" x2="2746.9136" y1="3580.2469" y2="3827.1605" /><line stroke="rgb(0%,0%,0%)" stroke-width="1" x1="2500.0" x2="2500.0" y1="4444.4444" y2="3703.7037" /><line stroke="rgb(0%,0%,0%)" stroke-width="1" x1="2746.9136" x2="2253.0864" y1="4197.5309" y2="4197.5309" /><line stroke="rgb(0%,0%,0%)" stroke-width="1" x1="4166.6667" x2="3981.4815" y1="3333.3333" y2="3333.3333" /><line stroke="rgb(0%,0%,0%)" stroke-width="1" x1="4104.9383" x2="4104.9383" y1="3271.6049" y2="3395.0617" /><line stroke="rgb(0%,0%,0%)" stroke-width="1" x1="3981.4815" x2="3981.4815" y1="3148.1481" y2="3333.3333" /><line stroke="rgb(0%,0%,0%)" stroke-width="1" x1="3919.7531" x2="4043.2099" y1="3209.8765" y2="3209.8765" /><line stroke="rgb(0%,0%,0%)" stroke-width="1" x1="3981.4815" x2="3981.4815" y1="3518.5185" y2="3333.3333" /><line stroke="rgb(0%,0%,0%)" stroke-width="1" x1="4043.2099" x2="3919.7531" y1="3456.7901" y2="3456.7901" /><line stroke="rgb(0%,0%,0%)" stroke-width="1" x1="3611.1111" x2="3981.4815" y1="3333.3333" y2="3333.3333" /><line stroke="rgb(0%,0%,0%)" stroke-width="1" x1="3734.5679" x2="3734.5679" y1="3456.7901" y2="3209.8765" /><line stroke="rgb(0%,0%,0%)" stroke-width="1" x1="3611.1111" x2="3611.1111" y1="2777.7778" y2="2962.963" /><line stroke="rgb(0%,0%,0%)" stroke-width="1" x1="3549.3827" x2="3672.8395" y1="2839.5062" y2="2839.5062" /><line stroke="rgb(0%,0%,0%)" stroke-width="1" x1="3425.9259" x2="3611.1111" y1="2962.963" y2="2962.963" /><line stroke="rgb(0%,0%,0%)" stroke-width="1" x1="3487.6543" x2="3487.6543" y1="3024.6914" y2="2901.2346" /><line stroke="rgb(0%,0%,0%)" stroke-width="1" x1="3796.2963" x2="3611.1111" y1="2962.963" y2="2962.963" /><line stroke="rgb(0%,0%,0%)" stroke-width="1" x1="3734.5679" x2="3734.5679" y1="2901.2346" y2="3024.6914" /><line stroke="rgb(0%,0%,0%)" stroke-width="1" x1="3611.1111" x2="3611.1111" y1="3333.3333" y2="2962.963" /><line stroke="rgb(0%,0%,0%)" stroke-width="1" x1="3734.5679" x2="3487.6543" y1="3209.8765" y2="3209.8765" /><line stroke="rgb(0%,0%,0%)" stroke-width="1" x1="3611.1111" x2="3611.1111" y1="3888.8889" y2="3703.7037" /><line stroke="rgb(0%,0%,0%)" stroke-width="1" x1="3672.8395" x2="3549.3827" y1="3827.1605" y2="3827.1605" /><line stroke="rgb(0%,0%,0%)" stroke-width="1" x1="3796.2963" x2="3611.1111" y1="3703.7037" y2="3703.7037" /><line stroke="rgb(0%,0%,0%)" stroke-width="1" x1="3734.5679" x2="3734.5679" y1="3641.9753" y2="3765.4321" /><line stroke="rgb(0%,0%,0%)" stroke-width="1" x1="3425.9259" x2="3611.1111" y1="3703.7037" y2="3703.7037" /><line stroke="rgb(0%,0%,0%)" stroke-width="1" x1="3487.6543" x2="3487.6543" y1="3765.4321" y2="3641.9753" /><line stroke="rgb(0%,0%,0%)" stroke-width="1" x1="3611.1111" x2="3611.1111" y1="3333.3333" y2="3703.7037" /><line stroke="rgb(0%,0%,0%)" stroke-width="1" x1="3487.6543" x2="3734.5679" y1="3456.7901" y2="3456.7901" /><line stroke="rgb(0%,0%,0%)" stroke-width="1" x1="2500.0" x2="2870.3704" y1="3333.3333" y2="3333.3333" /><line stroke="rgb(0%,0%,0%)" stroke-width="1" x1="2623.4568" x2="2623.4568" y1="3456.7901" y2="3209.8765" /><line stroke="rgb(0%,0%,0%)" stroke-width="1" x1="2870.3704" x2="2870.3704" y1="3703.7037" y2="3333.3333" /><line stroke="rgb(0%,0%,0%)" stroke-width="1" x1="2993.8272" x2="2746.9136" y1="3580.2469" y2="3580.2469" /><line stroke="rgb(0%,0%,0%)" stroke-width="1" x1="2870.3704" x2="2870.3704" y1="2962.963" y2="3333.3333" /><line stroke="rgb(0%,0%,0%)" stroke-width="1" x1="2746.9136" x2="2993.8272" y1="3086.4198" y2="3086.4198" /><line stroke="rgb(0%,0%,0%)" stroke-width="1" x1="3611.1111" x2="2870.3704" y1="3333.3333" y2="3333.3333" /><line stroke="rgb(0%,0%,0%)" stroke-width="1" x1="3364.1975" x2="3364.1975" y1="3086.4198" y2="3580.2469" /><line stroke="rgb(0%,0%,0%)" stroke-width="1" x1="833.3333" x2="1018.5185" y1="3333.3333" y2="3333.3333" /><line stroke="rgb(0%,0%,0%)" stroke-width="1" x1="895.0617" x2="895.0617" y1="3395.0617" y2="3271.6049" /><line stroke="rgb(0%,0%,0%)" stroke-width="1" x1="1018.5185" x2="1018.5185" y1="3518.5185" y2="3333.3333" /><line stroke="rgb(0%,0%,0%)" stroke-width="1" x1="1080.2469" x2="956.7901" y1="3456.7901" y2="3456.7901" /><line stroke="rgb(0%,0%,0%)" stroke-width="1" x1="1018.5185" x2="1018.5185" y1="3148.1481" y2="3333.3333" /><line stroke="rgb(0%,0%,0%)" stroke-width="1" x1="956.7901" x2="1080.2469" y1="3209.8765" y2="3209.8765" /><line stroke="rgb(0%,0%,0%)" stroke-width="1" x1="1388.8889" x2="1018.5185" y1="3333.3333" y2="3333.3333" /><line stroke="rgb(0%,0%,0%)" stroke-width="1" x1="1265.4321" x2="1265.4321" y1="3209.8765" y2="3456.7901" /><line stroke="rgb(0%,0%,0%)" stroke-width="1" x1="1388.8889" x2="1388.8889" y1="3888.8889" y2="3703.7037" /><line stroke="rgb(0%,0%,0%)" stroke-width="1" x1="1450.6173" x2="1327.1605" y1="3827.1605" y2="3827.1605" /><line stroke="rgb(0%,0%,0%)" stroke-width="1" x1="1574.0741" x2="1388.8889" y1="3703.7037" y2="3703.7037" /><line stroke="rgb(0%,0%,0%)" stroke-width="1" x1="1512.3457" x2="1512.3457" y1="3641.9753" y2="3765.4321" /><line stroke="rgb(0%,0%,0%)" stroke-width="1" x1="1203.7037" x2="1388.8889" y1="3703.7037" y2="3703.7037" /><line stroke="rgb(0%,0%,0%)" stroke-width="1" x1="1265.4321" x2="1265.4321" y1="3765.4321" y2="3641.9753" /><line stroke="rgb(0%,0%,0%)" stroke-width="1" x1="1388.8889" x2="1388.8889" y1="3333.3333" y2="3703.7037" /><line stroke="rgb(0%,0%,0%)" stroke-width="1" x1="1265.4321" x2="1512.3457" y1="3456.7901" y2="3456.7901" /><line stroke="rgb(0%,0%,0%)" stroke-width="1" x1="1388.8889" x2="1388.8889" y1="2777.7778" y2="2962.963" /><line stroke="rgb(0%,0%,0%)" stroke-width="1" x1="1327.1605" x2="1450.6173" y1="2839.5062" y2="2839.5062" /><line stroke="rgb(0%,0%,0%)" stroke-width="1" x1="1203.7037" x2="1388.8889" y1="2962.963" y2="2962.963" /><line stroke="rgb(0%,0%,0%)" stroke-width="1" x1="1265.4321" x2="1265.4321" y1="3024.6914" y2="2901.2346" /><line stroke="rgb(0%,0%,0%)" stroke-width="1" x1="1574.0741" x2="1388.8889" y1="2962.963" y2="2962.963" /><line stroke="rgb(0%,0%,0%)" stroke-width="1" x1="1512.3457" x2="1512.3457" y1="2901.2346" y2="3024.6914" /><line stroke="rgb(0%,0%,0%)" stroke-width="1" x1="1388.8889" x2="1388.8889" y1="3333.3333" y2="2962.963" /><line stroke="rgb(0%,0%,0%)" stroke-width="1" x1="1512.3457" x2="1265.4321" y1="3209.8765" y2="3209.8765" /><line stroke="rgb(0%,0%,0%)" stroke-width="1" x1="2500.0" x2="2129.6296" y1="3333.3333" y2="3333.3333" /><line stroke="rgb(0%,0%,0%)" stroke-width="1" x1="2376.5432" x2="2376.5432" y1="3209.8765" y2="3456.7901" /><line stroke="rgb(0%,0%,0%)" stroke-width="1" x1="2129.6296" x2="2129.6296" y1="2962.963" y2="3333.3333" /><line stroke="rgb(0%,0%,0%)" stroke-width="1" x1="2006.1728" x2="2253.0864" y1="3086.4198" y2="3086.4198" /><line stroke="rgb(0%,0%,0%)" stroke-width="1" x1="2129.6296" x2="2129.6296" y1="3703.7037" y2="3333.3333" /><line stroke="rgb(0%,0%,0%)" stroke-width="1" x1="2253.0864" x2="2006.1728" y1="3580.2469" y2="3580.2469" /><line stroke="rgb(0%,0%,0%)" stroke-width="1" x1="1388.8889" x2="2129.6296" y1="3333.3333" y2="3333.3333" /><line stroke="rgb(0%,0%,0%)" stroke-width="1" x1="1635.8025" x2="1635.8025" y1="3580.2469" y2="3086.4198" /><line stroke="rgb(0%,0%,0%)" stroke-width="1" x1="2500.0" x2="2500.0" y1="0.0" y2="370.3704" /><line stroke="rgb(0%,0%,0%)" stroke-width="1" x1="2376.5432" x2="2623.4568" y1="123.4568" y2="123.4568" /><line stroke="rgb(0%,0%,0%)" stroke-width="1" x1="2129.6296" x2="2500.0" y1="370.3704" y2="370.3704" /><line stroke="rgb(0%,0%,0%)" stroke-width="1" x1="2253.0864" x2="2253.0864" y1="493.8272" y2="246.9136" /><line stroke="rgb(0%,0%,0%)" stroke-width="1" x1="2870.3704" x2="2500.0" y1="370.3704" y2="370.3704" /><line stroke="rgb(0%,0%,0%)" stroke-width="1" x1="2746.9136" x2="2746.9136" y1="246.9136" y2="493.8272" /><line stroke="rgb(0%,0%,0%)" stroke-width="1" x1="2500.0" x2="2500.0" y1="1111.1111" y2="370.3704" /><line stroke="rgb(0%,0%,0%)" stroke-width="1" x1="2746.9136" x2="2253.0864" y1="864.1975" y2="864.1975" /><line stroke="rgb(0%,0%,0%)" stroke-width="1" x1="1388.8889" x2="1759.2593" y1="1111.1111" y2="1111.1111" /><line stroke="rgb(0%,0%,0%)" stroke-width="1" x1="1512.3457" x2="1512.3457" y1="1234.5679" y2="987.6543" /><line stroke="rgb(0%,0%,0%)" stroke-width="1" x1="1759.2593" x2="1759.2593" y1="1481.4815" y2="1111.1111" /><line stroke="rgb(0%,0%,0%)" stroke-width="1" x1="1882.716" x2="1635.8025" y1="1358.0247" y2="1358.0247" /><line stroke="rgb(0%,0%,0%)" stroke-width="1" x1="1759.2593" x2="1759.2593" y1="740.7407" y2="1111.1111" /><line stroke="rgb(0%,0%,0%)" stroke-width="1" x1="1635.8025" x2="1882.716" y1="864.1975" y2="864.1975" /><line stroke="rgb(0%,0%,0%)" stroke-width="1" x1="2500.0" x2="1759.2593" y1="1111.1111" y2="1111.1111" /><line stroke="rgb(0%,0%,0%)" stroke-width="1" x1="2253.0864" x2="2253.0864" y1="864.1975" y2="1358.0247" /><line stroke="rgb(0%,0%,0%)" stroke-width="1" x1="3611.1111" x2="3240.7407" y1="1111.1111" y2="1111.1111" /><line stroke="rgb(0%,0%,0%)" stroke-width="1" x1="3487.6543" x2="3487.6543" y1="987.6543" y2="1234.5679" /><line stroke="rgb(0%,0%,0%)" stroke-width="1" x1="3240.7407" x2="3240.7407" y1="740.7407" y2="1111.1111" /><line stroke="rgb(0%,0%,0%)" stroke-width="1" x1="3117.284" x2="3364.1975" y1="864.1975" y2="864.1975" /><line stroke="rgb(0%,0%,0%)" stroke-width="1" x1="3240.7407" x2="3240.7407" y1="1481.4815" y2="1111.1111" /><line stroke="rgb(0%,0%,0%)" stroke-width="1" x1="3364.1975" x2="3117.284" y1="1358.0247" y2="1358.0247" /><line stroke="rgb(0%,0%,0%)" stroke-width="1" x1="2500.0" x2="3240.7407" y1="1111.1111" y2="1111.1111" /><line stroke="rgb(0%,0%,0%)" stroke-width="1" x1="2746.9136" x2="2746.9136" y1="1358.0247" y2="864.1975" /><line stroke="rgb(0%,0%,0%)" stroke-width="1" x1="2500.0" x2="2500.0" y1="3333.3333" y2="2592.5926" /><line stroke="rgb(0%,0%,0%)" stroke-width="1" x1="2746.9136" x2="2253.0864" y1="3086.4198" y2="3086.4198" /><line stroke="rgb(0%,0%,0%)" stroke-width="1" x1="3240.7407" x2="2500.0" y1="2592.5926" y2="2592.5926" /><line stroke="rgb(0%,0%,0%)" stroke-width="1" x1="2993.8272" x2="2993.8272" y1="2345.679" y2="2839.5062" /><line stroke="rgb(0%,0%,0%)" stroke-width="1" x1="1759.2593" x2="2500.0" y1="2592.5926" y2="2592.5926" /><line stroke="rgb(0%,0%,0%)" stroke-width="1" x1="2006.1728" x2="2006.1728" y1="2839.5062" y2="2345.679" /><line stroke="rgb(0%,0%,0%)" stroke-width="1" x1="2500.0" x2="2500.0" y1="1111.1111" y2="2592.5926" /><line stroke="rgb(0%,0%,0%)" stroke-width="1" x1="2006.1728" x2="2993.8272" y1="1604.9383" y2="1604.9383" /></svg>