<?xml version="1.0" encoding="utf-8" ?>
<svg baseProfile="tiny" height="100%" version="1.2" width="100%" xmlns="http://www.w3.org/2000/svg" xmlns:ev="http://www.w3.org/2001/xml-events" xmlns:xlink="http://www.w3.org/1999/xlink"><defs /><line stroke="rgb(0%,0%,0%)" stroke-width="1" x1="50.0" x2="50.0" y1="0.0" y2="300.0" /><line stroke="rgb(0%,0%,0%)" stroke-width="1" x1="50.0" x2="83.3333" y1="0.0" y2="57.735" /><line stroke="rgb(0%,0%,0%)" stroke-width="1" x1="50.0" x2="62.83" y1="0.0" y2="7.4074" /><line stroke="rgb(0%,0%,0%)" stroke-width="1" x1="57.8704" x2="70.7004" y1="13.6319" y2="21.0393" /><line stroke="rgb(0%,0%,0%)" stroke-width="1" x1="65.7407" x2="78.5707" y1="27.2638" y2="34.6712" /><line stroke="rgb(0%,0%,0%)" stroke-width="1" x1="73.6111" x2="86.4411" y1="40.8956" y2="48.3031" /><line stroke="rgb(0%,0%,0%)" stroke-width="1" x1="81.4815" x2="94.3115" y1="54.5275" y2="61.9349" /><line stroke="rgb(0%,0%,0%)" stroke-width="1" x1="89.3519" x2="102.1819" y1="68.1594" y2="75.5668" /><line stroke="rgb(0%,0%,0%)" stroke-width="1" x1="97.2222" x2="110.0522" y1="81.7913" y2="89.1987" /><line stroke="rgb(0%,0%,0%)" stroke-width="1" x1="105.0926" x2="117.9226" y1="95.4232" y2="102.8306" /><line stroke="rgb(0%,0%,0%)" stroke-width="1" x1="50.0" x2="50.0" y1="0.0" y2="14.8148" /><line stroke="rgb(0%,0%,0%)" stroke-width="1" x1="54.1667" x2="54.1667" y1="7.2169" y2="22.0317" /><line stroke="rgb(0%,0%,0%)" stroke-width="1" x1="58.3333" x2="58.3333" y1="14.4338" y2="29.2486" /><line stroke="rgb(0%,0%,0%)" stroke-width="1" x1="62.5" x2="62.5" y1="21.6506" y2="36.4654" /><line stroke="rgb(0%,0%,0%)" stroke-width="1" x1="66.6667" x2="66.6667" y1="28.8675" y2="43.6823" /><line stroke="rgb(0%,0%,0%)" stroke-width="1" x1="70.8333" x2="70.8333" y1="36.0844" y2="50.8992" /><line stroke="rgb(0%,0%,0%)" stroke-width="1" x1="75.0" x2="75.0" y1="43.3013" y2="58.1161" /><line stroke="rgb(0%,0%,0%)" stroke-width="1" x1="79.1667" x2="79.1667" y1="50.5181" y2="65.333" /><line stroke="rgb(0%,0%,0%)" stroke-width="1" x1="50.0" x2="83.3333" y1="63.3333" y2="121.0684" /><line stroke="rgb(0%,0%,0%)" stroke-width="1" x1="50.0" x2="62.83" y1="63.3333" y2="70.7407" /><line stroke="rgb(0%,0%,0%)" stroke-width="1" x1="57.8704" x2="70.7004" y1="76.9652" y2="84.3726" /><line stroke="rgb(0%,0%,0%)" stroke-width="1" x1="65.7407" x2="78.5707" y1="90.5971" y2="98.0045" /><line stroke="rgb(0%,0%,0%)" stroke-width="1" x1="73.6111" x2="86.4411" y1="104.229" y2="111.6364" /><line stroke="rgb(0%,0%,0%)" stroke-width="1" x1="81.4815" x2="94.3115" y1="117.8609" y2="125.2683" /><line stroke="rgb(0%,0%,0%)" stroke-width="1" x1="89.3519" x2="102.1819" y1="131.4927" y2="138.9001" /><line stroke="rgb(0%,0%,0%)" stroke-width="1" x1="97.2222" x2="110.0522" y1="145.1246" y2="152.532" /><line stroke="rgb(0%,0%,0%)" stroke-width="1" x1="105.0926" x2="117.9226" y1="158.7565" y2="166.1639" /><line stroke="rgb(0%,0%,0%)" stroke-width="1" x1="50.0" x2="50.0" y1="63.3333" y2="78.1481" /><line stroke="rgb(0%,0%,0%)" stroke-width="1" x1="54.1667" x2="54.1667" y1="70.5502" y2="85.365" /><line stroke="rgb(0%,0%,0%)" stroke-width="1" x1="58.3333" x2="58.3333" y1="77.7671" y2="92.5819" /><line stroke="rgb(0%,0%,0%)" stroke-width="1" x1="62.5" x2="62.5" y1="84.984" y2="99.7988" /><line stroke="rgb(0%,0%,0%)" stroke-width="1" x1="66.6667" x2="66.6667" y1="92.2008" y2="107.0157" /><line stroke="rgb(0%,0%,0%)" stroke-width="1" x1="70.8333" x2="70.8333" y1="99.4177" y2="114.2325" /><line stroke="rgb(0%,0%,0%)" stroke-width="1" x1="75.0" x2="75.0" y1="106.6346" y2="121.4494" /><line stroke="rgb(0%,0%,0%)" stroke-width="1" x1="79.1667" x2="79.1667" y1="113.8515" y2="128.6663" /><line stroke="rgb(0%,0%,0%)" stroke-width="1" x1="50.0" x2="83.3333" y1="126.6667" y2="184.4017" /><line stroke="rgb(0%,0%,0%)" stroke-width="1" x1="50.0" x2="62.83" y1="126.6667" y2="134.0741" /><line stroke="rgb(0%,0%,0%)" stroke-width="1" x1="57.8704" x2="70.7004" y1="140.2985" y2="147.706" /><line stroke="rgb(0%,0%,0%)" stroke-width="1" x1="65.7407" x2="78.5707" y1="153.9304" y2="161.3378" /><line stroke="rgb(0%,0%,0%)" stroke-width="1" x1="73.6111" x2="86.4411" y1="167.5623" y2="174.9697" /><line stroke="rgb(0%,0%,0%)" stroke-width="1" x1="81.4815" x2="94.3115" y1="181.1942" y2="188.6016" /><line stroke="rgb(0%,0%,0%)" stroke-width="1" x1="89.3519" x2="102.1819" y1="194.8261" y2="202.2335" /><line stroke="rgb(0%,0%,0%)" stroke-width="1" x1="97.2222" x2="110.0522" y1="208.458" y2="215.8654" /><line stroke="rgb(0%,0%,0%)" stroke-width="1" x1="105.0926" x2="117.9226" y1="222.0898" y2="229.4972" /><line stroke="rgb(0%,0%,0%)" stroke-width="1" x1="50.0" x2="50.0" y1="126.6667" y2="141.4815" /><line stroke="rgb(0%,0%,0%)" stroke-width="1" x1="54.1667" x2="54.1667" y1="133.8835" y2="148.6984" /><line stroke="rgb(0%,0%,0%)" stroke-width="1" x1="58.3333" x2="58.3333" y1="141.1004" y2="155.9152" /><line stroke="rgb(0%,0%,0%)" stroke-width="1" x1="62.5" x2="62.5" y1="148.3173" y2="163.1321" /><line stroke="rgb(0%,0%,0%)" stroke-width="1" x1="66.6667" x2="66.6667" y1="155.5342" y2="170.349" /><line stroke="rgb(0%,0%,0%)" stroke-width="1" x1="70.8333" x2="70.8333" y1="162.7511" y2="177.5659" /><line stroke="rgb(0%,0%,0%)" stroke-width="1" x1="75.0" x2="75.0" y1="169.9679" y2="184.7828" /><line stroke="rgb(0%,0%,0%)" stroke-width="1" x1="79.1667" x2="79.1667" y1="177.1848" y2="191.9996" /><line stroke="rgb(0%,0%,0%)" stroke-width="1" x1="50.0" x2="83.3333" y1="190.0" y2="247.735" /><line stroke="rgb(0%,0%,0%)" stroke-width="1" x1="50.0" x2="62.83" y1="190.0" y2="197.4074" /><line stroke="rgb(0%,0%,0%)" stroke-width="1" x1="57.8704" x2="70.7004" y1="203.6319" y2="211.0393" /><line stroke="rgb(0%,0%,0%)" stroke-width="1" x1="65.7407" x2="78.5707" y1="217.2638" y2="224.6712" /><line stroke="rgb(0%,0%,0%)" stroke-width="1" x1="73.6111" x2="86.4411" y1="230.8956" y2="238.3031" /><line stroke="rgb(0%,0%,0%)" stroke-width="1" x1="81.4815" x2="94.3115" y1="244.5275" y2="251.9349" /><line stroke="rgb(0%,0%,0%)" stroke-width="1" x1="89.3519" x2="102.1819" y1="258.1594" y2="265.5668" /><line stroke="rgb(0%,0%,0%)" stroke-width="1" x1="97.2222" x2="110.0522" y1="271.7913" y2="279.1987" /><line stroke="rgb(0%,0%,0%)" stroke-width="1" x1="105.0926" x2="117.9226" y1="285.4232" y2="292.8306" /><line stroke="rgb(0%,0%,0%)" stroke-width="1" x1="50.0" x2="50.0" y1="190.0" y2="204.8148" /><line stroke="rgb(0%,0%,0%)" stroke-width="1" x1="54.1667" x2="54.1667" y1="197.2169" y2="212.0317" /><line stroke="rgb(0%,0%,0%)" stroke-width="1" x1="58.3333" x2="58.3333" y1="204.4338" y2="219.2486" /><line stroke="rgb(0%,0%,0%)" stroke-width="1" x1="62.5" x2="62.5" y1="211.6506" y2="226.4654" /><line stroke="rgb(0%,0%,0%)" stroke-width="1" x1="66.6667" x2="66.6667" y1="218.8675" y2="233.6823" /><line stroke="rgb(0%,0%,0%)" stroke-width="1" x1="70.8333" x2="70.8333" y1="226.0844" y2="240.8992" /><line stroke="rgb(0%,0%,0%)" stroke-width="1" x1="75.0" x2="75.0" y1="233.3013" y2="248.1161" /><line stroke="rgb(0%,0%,0%)" stroke-width="1" x1="79.1667" x2="79.1667" y1="240.5181" y2="255.333" /><line stroke="rgb(0%,0%,0%)" stroke-width="1" x1="50.0" x2="83.3333" y1="253.3333" y2="311.0684" /><line stroke="rgb(0%,0%,0%)" stroke-width="1" x1="50.0" x2="62.83" y1="253.3333" y2="260.7407" /><line stroke="rgb(0%,0%,0%)" stroke-width="1" x1="57.8704" x2="70.7004" y1="266.9652" y2="274.3726" /><line stroke="rgb(0%,0%,0%)" stroke-width="1" x1="65.7407" x2="78.5707" y1="280.5971" y2="288.0045" /><line stroke="rgb(0%,0%,0%)" stroke-width="1" x1="73.6111" x2="86.4411" y1="294.229" y2="301.6364" /><line stroke="rgb(0%,0%,0%)" stroke-width="1" x1="81.4815" x2="94.3115" y1="307.8609" y2="315.2683" /><line stroke="rgb(0%,0%,0%)" stroke-width="1" x1="89.3519" x2="102.1819" y1="321.4927" y2="328.9001" /><line stroke="rgb(0%,0%,0%)" stroke-width="1" x1="97.2222" x2="110.0522" y1="335.1246" y2="342.532" /><line stroke="rgb(0%,0%,0%)" stroke-width="1" x1="105.0926" x2="117.9226" y1="348.7565" y2="356.1639" /><line stroke="rgb(0%,0%,0%)" stroke-width="1" x1="50.0" x2="50.0" y1="253.3333" y2="268.1481" /><line stroke="rgb(0%,0%,0%)" stroke-width="1" x1="54.1667" x2="54.1667" y1="260.5502" y2="275.365" /><line stroke="rgb(0%,0%,0%)" stroke-width="1" x1="58.3333" x2="58.3333" y1="267.7671" y2="282.5819" /><line stroke="rgb(0%,0%,0%)" stroke-width="1" x1="62.5" x2="62.5" y1="274.984" y2="289.7988" /><line stroke="rgb(0%,0%,0%)" stroke-width="1" x1="66.6667" x2="66.6667" y1="282.2008" y2="297.0157" /><line stroke="rgb(0%,0%,0%)" stroke-width="1" x1="70.8333" x2="70.8333" y1="289.4177" y2="304.2325" /><line stroke="rgb(0%,0%,0%)" stroke-width="1" x1="75.0" x2="75.0" y1="296.6346" y2="311.4494" /><line stroke="rgb(0%,0%,0%)" stroke-width="1" x1="79.1667" x2="79.1667" y1="303.8515" y2="318.6663" /><line stroke="rgb(0%,0%,0%)" stroke-width="1" x1="50.0" x2="83.3333" y1="316.6667" y2="374.4017" /><line stroke="rgb(0%,0%,0%)" stroke-width="1" x1="50.0" x2="62.83" y1="316.6667" y2="324.0741" /><line stroke="rgb(0%,0%,0%)" stroke-width="1" x1="57.8704" x2="70.7004" y1="330.2985" y2="337.706" /><line stroke="rgb(0%,0%,0%)" stroke-width="1" x1="65.7407" x2="78.5707" y1="343.9304" y2="351.3378" /><line stroke="rgb(0%,0%,0%)" stroke-width="1" x1="73.6111" x2="86.4411" y1="357.5623" y2="364.9697" /><line stroke="rgb(0%,0%,0%)" stroke-width="1" x1="81.4815" x2="94.3115" y1="371.1942" y2="378.6016" /><line stroke="rgb(0%,0%,0%)" stroke-width="1" x1="89.3519" x2="102.1819" y1="384.8261" y2="392.2335" /><line stroke="rgb(0%,0%,0%)" stroke-width="1" x1="97.2222" x2="110.0522" y1="398.458" y2="405.8654" /><line stroke="rgb(0%,0%,0%)" stroke-width="1" x1="105.0926" x2="117.9226" y1="412.0898" y2="419.4972" /><line stroke="rgb(0%,0%,0%)" stroke-width="1" x1="50.0" x2="50.0" y1="316.6667" y2="331.4815" /><line stroke="rgb(0%,0%,0%)" stroke-width="1" x1="54.1667" x2="54.1667" y1="323.8835" y2="338.6984" /><line stroke="rgb(0%,0%,0%)" stroke-width="1" x1="58.3333" x2="58.3333" y1="331.1004" y2="345.9152" /><line stroke="rgb(0%,0%,0%)" stroke-width="1" x1="62.5" x2="62.5" y1="338.3173" y2="353.1321" /><line stroke="rgb(0%,0%,0%)" stroke-width="1" x1="66.6667" x2="66.6667" y1="345.5342" y2="360.349" /><line stroke="rgb(0%,0%,0%)" stroke-width="1" x1="70.8333" x2="70.8333" y1="352.7511" y2="367.5659" /><line stroke="rgb(0%,0%,0%)" stroke-width="1" x1="75.0" x2="75.0" y1="359.9679" y2="374.7828" /><line stroke="rgb(0%,0%,0%)" stroke-width="1" x1="79.1667" x2="79.1667" y1="367.1848" y2="381.9996" /><line stroke="rgb(0%,0%,0%)" stroke-width="1" x1="50.0" x2="83.3333" y1="380.0" y2="437.735" /><line stroke="rgb(0%,0%,0%)" stroke-width="1" x1="50.0" x2="62.83" y1="380.0" y2="387.4074" /><line stroke="rgb(0%,0%,0%)" stroke-width="1" x1="57.8704" x2="70.7004" y1="393.6319" y2="401.0393" /><line stroke="rgb(0%,0%,0%)" stroke-width="1" x1="65.7407" x2="78.5707" y1="407.2638" y2="414.6712" /><line stroke="rgb(0%,0%,0%)" stroke-width="1" x1="73.6111" x2="86.4411" y1="420.8956" y2="428.3031" /><line stroke="rgb(0%,0%,0%)" stroke-width="1" x1="81.4815" x2="94.3115" y1="434.5275" y2="441.9349" /><line stroke="rgb(0%,0%,0%)" stroke-width="1" x1="89.3519" x2="102.1819" y1="448.1594" y2="455.5668" /><line stroke="rgb(0%,0%,0%)" stroke-width="1" x1="97.2222" x2="110.0522" y1="461.7913" y2="469.1987" /><line stroke="rgb(0%,0%,0%)" stroke-width="1" x1="105.0926" x2="117.9226" y1="475.4232" y2="482.8306" /><line stroke="rgb(0%,0%,0%)" stroke-width="1" x1="50.0" x2="50.0" y1="380.0" y2="394.8148" /><line stroke="rgb(0%,0%,0%)" stroke-width="1" x1="54.1667" x2="54.1667" y1="387.2169" y2="402.0317" /><line stroke="rgb(0%,0%,0%)" stroke-width="1" x1="58.3333" x2="58.3333" y1="394.4338" y2="409.2486" /><line stroke="rgb(0%,0%,0%)" stroke-width="1" x1="62.5" x2="62.5" y1="401.6506" y2="416.4654" /><line stroke="rgb(0%,0%,0%)" stroke-width="1" x1="66.6667" x2="66.6667" y1="408.8675" y2="423.6823" /><line stroke="rgb(0%,0%,0%)" stroke-width="1" x1="70.8333" x2="70.8333" y1="416.0844" y2="430.8992" /><line stroke="rgb(0%,0%,0%)" stroke-width="1" x1="75.0" x2="75.0" y1="423.3013" y2="438.1161" /><line stroke="rgb(0%,0%,0%)" stroke-width="1" x1="79.1667" x2="79.1667" y1="430.5181" y2="445.333" /><line stroke="rgb(0%,0%,0%)" stroke-width="1" x1="50.0" x2="83.3333" y1="443.3333" y2="501.0684" /><line stroke="rgb(0%,0%,0%)" stroke-width="1" x1="50.0" x2="62.83" y1="443.3333" y2="450.7407" /><line stroke="rgb(0%,0%,0%)" stroke-width="1" x1="57.8704" x2="70.7004" y1="456.9652" y2="464.3726" /><line stroke="rgb(0%,0%,0%)" stroke-width="1" x1="65.7407" x2="78.5707" y1="470.5971" y2="478.0045" /><line stroke="rgb(0%,0%,0%)" stroke-width="1" x1="73.6111" x2="86.4411" y1="484.229" y2="491.6364" /><line stroke="rgb(0%,0%,0%)" stroke-width="1" x1="81.4815" x2="94.3115" y1="497.8609" y2="505.2683" /><line stroke="rgb(0%,0%,0%)" stroke-width="1" x1="89.3519" x2="102.1819" y1="511.4927" y2="518.9001" /><line stroke="rgb(0%,0%,0%)" stroke-width="1" x1="97.2222" x2="110.0522" y1="525.1246" y2="532.532" /><line stroke="rgb(0%,0%,0%)" stroke-width="1" x1="105.0926" x2="117.9226" y1="538.7565" y2="546.1639" /><line stroke="rgb(0%,0%,0%)" stroke-width="1" x1="50.0" x2="50.0" y1="443.3333" y2="458.1481" /><line stroke="rgb(0%,0%,0%)" stroke-width="1" x1="54.1667" x2="54.1667" y1="450.5502" y2="465.365" /><line stroke="rgb(0%,0%,0%)" stroke-width="1" x1="58.3333" x2="58.3333" y1="457.7671" y2="472.5819" /><line stroke="rgb(0%,0%,0%)" stroke-width="1" x1="62.5" x2="62.5" y1="464.984" y2="479.7988" /><line stroke="rgb(0%,0%,0%)" stroke-width="1" x1="66.6667" x2="66.6667" y1="472.2008" y2="487.0157" /><line stroke="rgb(0%,0%,0%)" stroke-width="1" x1="70.8333" x2="70.8333" y1="479.4177" y2="494.2325" /><line stroke="rgb(0%,0%,0%)" stroke-width="1" x1="75.0" x2="75.0" y1="486.6346" y2="501.4494" /><line stroke="rgb(0%,0%,0%)" stroke-width="1" x1="79.1667" x2="79.1667" y1="493.8515" y2="508.6663" /><line stroke="rgb(0%,0%,0%)" stroke-width="1" x1="50.0" x2="83.3333" y1="506.6667" y2="564.4017" /><line stroke="rgb(0%,0%,0%)" stroke-width="1" x1="50.0" x2="62.83" y1="506.6667" y2="514.0741" /><line stroke="rgb(0%,0%,0%)" stroke-width="1" x1="57.8704" x2="70.7004" y1="520.2985" y2="527.706" /><line stroke="rgb(0%,0%,0%)" stroke-width="1" x1="65.7407" x2="78.5707" y1="533.9304" y2="541.3378" /><line stroke="rgb(0%,0%,0%)" stroke-width="1" x1="73.6111" x2="86.4411" y1="547.5623" y2="554.9697" /><line stroke="rgb(0%,0%,0%)" stroke-width="1" x1="81.4815" x2="94.3115" y1="561.1942" y2="568.6016" /><line stroke="rgb(0%,0%,0%)" stroke-width="1" x1="89.3519" x2="102.1819" y1="574.8261" y2="582.2335" /><line stroke="rgb(0%,0%,0%)" stroke-width="1" x1="97.2222" x2="110.0522" y1="588.458" y2="595.8654" /><line stroke="rgb(0%,0%,0%)" stroke-width="1" x1="105.0926" x2="117.9226" y1="602.0898" y2="609.4972" /><line stroke="rgb(0%,0%,0%)" stroke-width="1" x1="50.0" x2="50.0" y1="506.6667" y2="521.4815" /><line stroke="rgb(0%,0%,0%)" stroke-width="1" x1="54.1667" x2="54.1667" y1="513.8835" y2="528.6984" /><line stroke="rgb(0%,0%,0%)" stroke-width="1" x1="58.3333" x2="58.3333" y1="521.1004" y2="535.9152" /><line stroke="rgb(0%,0%,0%)" stroke-width="1" x1="62.5" x2="62.5" y1="528.3173" y2="543.1321" /><line stroke="rgb(0%,0%,0%)" stroke-width="1" x1="66.6667" x2="66.6667" y1="535.5342" y2="550.349" /><line stroke="rgb(0%,0%,0%)" stroke-width="1" x1="70.8333" x2="70.8333" y1="542.7511" y2="557.5659" /><line stroke="rgb(0%,0%,0%)" stroke-width="1" x1="75.0" x2="75.0" y1="549.9679" y2="564.7828" /><line stroke="rgb(0%,0%,0%)" stroke-width="1" x1="79.1667" x2="79.1667" y1="557.1848" y2="571.9996" /><line stroke="rgb(0%,0%,0%)" stroke-width="1" x1="50.0" x2="83.3333" y1="570.0" y2="627.735" /><line stroke="rgb(0%,0%,0%)" stroke-width="1" x1="50.0" x2="62.83" y1="570.0" y2="577.4074" /><line stroke="rgb(0%,0%,0%)" stroke-width="1" x1="57.8704" x2="70.7004" y1="583.6319" y2="591.0393" /><line stroke="rgb(0%,0%,0%)" stroke-width="1" x1="65.7407" x2="78.5707" y1="597.2638" y2="604.6712" /><line stroke="rgb(0%,0%,0%)" stroke-width="1" x1="73.6111" x2="86.4411" y1="610.8956" y2="618.3031" /><line stroke="rgb(0%,0%,0%)" stroke-width="1" x1="81.4815" x2="94.3115" y1="624.5275" y2="631.9349" /><line stroke="rgb(0%,0%,0%)" stroke-width="1" x1="89.3519" x2="102.1819" y1="638.1594" y2="645.5668" /><line stroke="rgb(0%,0%,0%)" stroke-width="1" x1="97.2222" x2="110.0522" y1="651.7913" y2="659.1987" /><line stroke="rgb(0%,0%,0%)" stroke-width="1" x1="105.0926" x2="117.9226" y1="665.4232" y2="672.8306" /><line stroke="rgb(0%,0%,0%)" stroke-width="1" x1="50.0" x2="50.0" y1="570.0" y2="584.8148" /><line stroke="rgb(0%,0%,0%)" stroke-width="1" x1="54.1667" x2="54.1667" y1="577.2169" y2="592.0317" /><line stroke="rgb(0%,0%,0%)" stroke-width="1" x1="58.3333" x2="58.3333" y1="584.4338" y2="599.2486" /><line stroke="rgb(0%,0%,0%)" stroke-width="1" x1="62.5" x2="62.5" y1="591.6506" y2="606.4654" /><line stroke="rgb(0%,0%,0%)" stroke-width="1" x1="66.6667" x2="66.6667" y1="598.8675" y2="613.6823" /><line stroke="rgb(0%,0%,0%)" stroke-width="1" x1="70.8333" x2="70.8333" y1="606.0844" y2="620.8992" /><line stroke="rgb(0%,0%,0%)" stroke-width="1" x1="75.0" x2="75.0" y1="613.3013" y2="628.1161" /><line stroke="rgb(0%,0%,0%)" stroke-width="1" x1="79.1667" x2="79.1667" y1="620.5181" y2="635.333" /><line stroke="rgb(0%,0%,0%)" stroke-width="1" x1="50.0" x2="16.6667" y1="0.0" y2="57.735" /><line stroke="rgb(0%,0%,0%)" stroke-width="1" x1="50.0" x2="50.0" y1="0.0" y2="14.8148" /><line stroke="rgb(0%,0%,0%)" stroke-width="1" x1="42.1296" x2="42.1296" y1="13.6319" y2="28.4467" /><line stroke="rgb(0%,0%,0%)" stroke-width="1" x1="34.2593" x2="34.2593" y1="27.2638" y2="42.0786" /><line stroke="rgb(0%,0%,0%)" stroke-width="1" x1="26.3889" x2="26.3889" y1="40.8956" y2="55.7105" /><line stroke="rgb(0%,0%,0%)" stroke-width="1" x1="18.5185" x2="18.5185" y1="54.5275" y2="69.3423" /><line stroke="rgb(0%,0%,0%)" stroke-width="1" x1="10.6481" x2="10.6481" y1="68.1594" y2="82.9742" /><line stroke="rgb(0%,0%,0%)" stroke-width="1" x1="2.7778" x2="2.7778" y1="81.7913" y2="96.6061" /><line stroke="rgb(0%,0%,0%)" stroke-width="1" x1="-5.0926" x2="-5.0926" y1="95.4232" y2="110.238" /><line stroke="rgb(0%,0%,0%)" stroke-width="1" x1="50.0" x2="37.17" y1="0.0" y2="7.4074" /><line stroke="rgb(0%,0%,0%)" stroke-width="1" x1="45.8333" x2="33.0033" y1="7.2169" y2="14.6243" /><line stroke="rgb(0%,0%,0%)" stroke-width="1" x1="41.6667" x2="28.8367" y1="14.4338" y2="21.8412" /><line stroke="rgb(0%,0%,0%)" stroke-width="1" x1="37.5" x2="24.67" y1="21.6506" y2="29.058" /><line stroke="rgb(0%,0%,0%)" stroke-width="1" x1="33.3333" x2="20.5033" y1="28.8675" y2="36.2749" /><line stroke="rgb(0%,0%,0%)" stroke-width="1" x1="29.1667" x2="16.3367" y1="36.0844" y2="43.4918" /><line stroke="rgb(0%,0%,0%)" stroke-width="1" x1="25.0" x2="12.17" y1="43.3013" y2="50.7087" /><line stroke="rgb(0%,0%,0%)" stroke-width="1" x1="20.8333" x2="8.0033" y1="50.5181" y2="57.9256" /><line stroke="rgb(0%,0%,0%)" stroke-width="1" x1="50.0" x2="16.6667" y1="30.0" y2="87.735" /><line stroke="rgb(0%,0%,0%)" stroke-width="1" x1="50.0" x2="50.0" y1="30.0" y2="44.8148" /><line stroke="rgb(0%,0%,0%)" stroke-width="1" x1="42.1296" x2="42.1296" y1="43.6319" y2="58.4467" /><line stroke="rgb(0%,0%,0%)" stroke-width="1" x1="34.2593" x2="34.2593" y1="57.2638" y2="72.0786" /><line stroke="rgb(0%,0%,0%)" stroke-width="1" x1="26.3889" x2="26.3889" y1="70.8956" y2="85.7105" /><line stroke="rgb(0%,0%,0%)" stroke-width="1" x1="18.5185" x2="18.5185" y1="84.5275" y2="99.3423" /><line stroke="rgb(0%,0%,0%)" stroke-width="1" x1="10.6481" x2="10.6481" y1="98.1594" y2="112.9742" /><line stroke="rgb(0%,0%,0%)" stroke-width="1" x1="2.7778" x2="2.7778" y1="111.7913" y2="126.6061" /><line stroke="rgb(0%,0%,0%)" stroke-width="1" x1="-5.0926" x2="-5.0926" y1="125.4232" y2="140.238" /><line stroke="rgb(0%,0%,0%)" stroke-width="1" x1="50.0" x2="37.17" y1="30.0" y2="37.4074" /><line stroke="rgb(0%,0%,0%)" stroke-width="1" x1="45.8333" x2="33.0033" y1="37.2169" y2="44.6243" /><line stroke="rgb(0%,0%,0%)" stroke-width="1" x1="41.6667" x2="28.8367" y1="44.4338" y2="51.8412" /><line stroke="rgb(0%,0%,0%)" stroke-width="1" x1="37.5" x2="24.67" y1="51.6506" y2="59.058" /><line stroke="rgb(0%,0%,0%)" stroke-width="1" x1="33.3333" x2="20.5033" y1="58.8675" y2="66.2749" /><line stroke="rgb(0%,0%,0%)" stroke-width="1" x1="29.1667" x2="16.3367" y1="66.0844" y2="73.4918" /><line stroke="rgb(0%,0%,0%)" stroke-width="1" x1="25.0" x2="12.17" y1="73.3013" y2="80.7087" /><line stroke="rgb(0%,0%,0%)" stroke-width="1" x1="20.8333" x2="8.0033" y1="80.5181" y2="87.9256" /><line stroke="rgb(0%,0%,0%)" stroke-width="1" x1="50.0" x2="16.6667" y1="60.0" y2="117.735" /><line stroke="rgb(0%,0%,0%)" stroke-width="1" x1="50.0" x2="50.0" y1="60.0" y2="74.8148" /><line stroke="rgb(0%,0%,0%)" stroke-width="1" x1="42.1296" x2="42.1296" y1="73.6319" y2="88.4467" /><line stroke="rgb(0%,0%,0%)" stroke-width="1" x1="34.2593" x2="34.2593" y1="87.2638" y2="102.0786" /><line stroke="rgb(0%,0%,0%)" stroke-width="1" x1="26.3889" x2="26.3889" y1="100.8956" y2="115.7105" /><line stroke="rgb(0%,0%,0%)" stroke-width="1" x1="18.5185" x2="18.5185" y1="114.5275" y2="129.3423" /><line stroke="rgb(0%,0%,0%)" stroke-width="1" x1="10.6481" x2="10.6481" y1="128.1594" y2="142.9742" /><line stroke="rgb(0%,0%,0%)" stroke-width="1" x1="2.7778" x2="2.7778" y1="141.7913" y2="156.6061" /><line stroke="rgb(0%,0%,0%)" stroke-width="1" x1="-5.0926" x2="-5.0926" y1="155.4232" y2="170.238" /><line stroke="rgb(0%,0%,0%)" stroke-width="1" x1="50.0" x2="37.17" y1="60.0" y2="67.4074" /><line stroke="rgb(0%,0%,0%)" stroke-width="1" x1="45.8333" x2="33.0033" y1="67.2169" y2="74.6243" /><line stroke="rgb(0%,0%,0%)" stroke-width="1" x1="41.6667" x2="28.8367" y1="74.4338" y2="81.8412" /><line stroke="rgb(0%,0%,0%)" stroke-width="1" x1="37.5" x2="24.67" y1="81.6506" y2="89.058" /><line stroke="rgb(0%,0%,0%)" stroke-width="1" x1="33.3333" x2="20.5033" y1="88.8675" y2="96.2749" /><line stroke="rgb(0%,0%,0%)" stroke-width="1" x1="29.1667" x2="16.3367" y1="96.0844" y2="103.4918" /><line stroke="rgb(0%,0%,0%)" stroke-width="1" x1="25.0" x2="12.17" y1="103.3013" y2="110.7087" /><line stroke="rgb(0%,0%,0%)" stroke-width="1" x1="20.8333" x2="8.0033" y1="110.5181" y2="117.9256" /><line stroke="rgb(0%,0%,0%)" stroke-width="1" x1="50.0" x2="16.6667" y1="90.0" y2="147.735" /><line stroke="rgb(0%,0%,0%)" stroke-width="1" x1="50.0" x2="50.0" y1="90.0" y2="104.8148" /><line stroke="rgb(0%,0%,0%)" stroke-width="1" x1="42.1296" x2="42.1296" y1="103.6319" y2="118.4467" /><line stroke="rgb(0%,0%,0%)" stroke-width="1" x1="34.2593" x2="34.2593" y1="117.2638" y2="132.0786" /><line stroke="rgb(0%,0%,0%)" stroke-width="1" x1="26.3889" x2="26.3889" y1="130.8956" y2="145.7105" /><line stroke="rgb(0%,0%,0%)" stroke-width="1" x1="18.5185" x2="18.5185" y1="144.5275" y2="159.3423" /><line stroke="rgb(0%,0%,0%)" stroke-width="1" x1="10.6481" x2="10.6481" y1="158.1594" y2="172.9742" /><line stroke="rgb(0%,0%,0%)" stroke-width="1" x1="2.7778" x2="2.7778" y1="171.7913" y2="186.6061" /><line stroke="rgb(0%,0%,0%)" stroke-width="1" x1="-5.0926" x2="-5.0926" y1="185.4232" y2="200.238" /><line stroke="rgb(0%,0%,0%)" stroke-width="1" x1="50.0" x2="37.17" y1="90.0" y2="97.4074" /><line stroke="rgb(0%,0%,0%)" stroke-width="1" x1="45.8333" x2="33.0033" y1="97.2169" y2="104.6243" /><line stroke="rgb(0%,0%,0%)" stroke-width="1" x1="41.6667" x2="28.8367" y1="104.4338" y2="111.8412" /><line stroke="rgb(0%,0%,0%)" stroke-width="1" x1="37.5" x2="24.67" y1="111.6506" y2="119.058" /><line stroke="rgb(0%,0%,0%)" stroke-width="1" x1="33.3333" x2="20.5033" y1="118.8675" y2="126.2749" /><line stroke="rgb(0%,0%,0%)" stroke-width="1" x1="29.1667" x2="16.3367" y1="126.0844" y2="133.4918" /><line stroke="rgb(0%,0%,0%)" stroke-width="1" x1="25.0" x2="12.17" y1="133.3013" y2="140.7087" /><line stroke="rgb(0%,0%,0%)" stroke-width="1" x1="20.8333" x2="8.0033" y1="140.5181" y2="147.9256" /><line stroke="rgb(0%,0%,0%)" stroke-width="1" x1="50.0" x2="16.6667" y1="120.0" y2="177.735" /><line stroke="rgb(0%,0%,0%)" stroke-width="1" x1="50.0" x2="50.0" y1="120.0" y2="134.8148" /><line stroke="rgb(0%,0%,0%)" stroke-width="1" x1="42.1296" x2="42.1296" y1="133.6319" y2="148.4467" /><line stroke="rgb(0%,0%,0%)" stroke-width="1" x1="34.2593" x2="34.2593" y1="147.2638" y2="162.0786" /><line stroke="rgb(0%,0%,0%)" stroke-width="1" x1="26.3889" x2="26.3889" y1="160.8956" y2="175.7105" /><line stroke="rgb(0%,0%,0%)" stroke-width="1" x1="18.5185" x2="18.5185" y1="174.5275" y2="189.3423" /><line stroke="rgb(0%,0%,0%)" stroke-width="1" x1="10.6481" x2="10.6481" y1="188.1594" y2="202.9742" /><line stroke="rgb(0%,0%,0%)" stroke-width="1" x1="2.7778" x2="2.7778" y1="201.7913" y2="216.6061" /><line stroke="rgb(0%,0%,0%)" stroke-width="1" x1="-5.0926" x2="-5.0926" y1="215.4232" y2="230.238" /><line stroke="rgb(0%,0%,0%)" stroke-width="1" x1="50.0" x2="37.17" y1="120.0" y2="127.4074" /><line stroke="rgb(0%,0%,0%)" stroke-width="1" x1="45.8333" x2="33.0033" y1="127.2169" y2="134.6243" /><line stroke="rgb(0%,0%,0%)" stroke-width="1" x1="41.6667" x2="28.8367" y1="134.4338" y2="141.8412" /><line stroke="rgb(0%,0%,0%)" stroke-width="1" x1="37.5" x2="24.67" y1="141.6506" y2="149.058" /><line stroke="rgb(0%,0%,0%)" stroke-width="1" x1="33.3333" x2="20.5033" y1="148.8675" y2="156.2749" /><line stroke="rgb(0%,0%,0%)" stroke-width="1" x1="29.1667" x2="16.3367" y1="156.0844" y2="163.4918" /><line stroke="rgb(0%,0%,0%)" stroke-width="1" x1="25.0" x2="12.17" y1="163.3013" y2="170.7087" /><line stroke="rgb(0%,0%,0%)" stroke-width="1" x1="20.8333" x2="8.0033" y1="170.5181" y2="177.9256" /><line stroke="rgb(0%,0%,0%)" stroke-width="1" x1="50.0" x2="16.6667" y1="150.0" y2="207.735" /><line stroke="rgb(0%,0%,0%)" stroke-width="1" x1="50.0" x2="50.0" y1="150.0" y2="164.8148" /><line stroke="rgb(0%,0%,0%)" stroke-width="1" x1="42.1296" x2="42.1296" y1="163.6319" y2="178.4467" /><line stroke="rgb(0%,0%,0%)" stroke-width="1" x1="34.2593" x2="34.2593" y1="177.2638" y2="192.0786" /><line stroke="rgb(0%,0%,0%)" stroke-width="1" x1="26.3889" x2="26.3889" y1="190.8956" y2="205.7105" /><line stroke="rgb(0%,0%,0%)" stroke-width="1" x1="18.5185" x2="18.5185" y1="204.5275" y2="219.3423" /><line stroke="rgb(0%,0%,0%)" stroke-width="1" x1="10.6481" x2="10.6481" y1="218.1594" y2="232.9742" /><line stroke="rgb(0%,0%,0%)" stroke-width="1" x1="2.7778" x2="2.7778" y1="231.7913" y2="246.6061" /><line stroke="rgb(0%,0%,0%)" stroke-width="1" x1="-5.0926" x2="-5.0926" y1="245.4232" y2="260.238" /><line stroke="rgb(0%,0%,0%)" stroke-width="1" x1="50.0" x2="37.17" y1="150.0" y2="157.4074" /><line stroke="rgb(0%,0%,0%)" stroke-width="1" x1="45.8333" x2="33.0033" y1="157.2169" y2="164.6243" /><line stroke="rgb(0%,0%,0%)" stroke-width="1" x1="41.6667" x2="28.8367" y1="164.4338" y2="171.8412" /><line stroke="rgb(0%,0%,0%)" stroke-width="1" x1="37.5" x2="24.67" y1="171.6506" y2="179.058" /><line stroke="rgb(0%,0%,0%)" stroke-width="1" x1="33.3333" x2="20.5033" y1="178.8675" y2="186.2749" /><line stroke="rgb(0%,0%,0%)" stroke-width="1" x1="29.1667" x2="16.3367" y1="186.0844" y2="193.4918" /><line stroke="rgb(0%,0%,0%)" stroke-width="1" x1="25.0" x2="12.17" y1="193.3013" y2="200.7087" /><line stroke="rgb(0%,0%,0%)" stroke-width="1" x1="20.8333" x2="8.0033" y1="200.5181" y2="207.9256" /><line stroke="rgb(0%,0%,0%)" stroke-width="1" x1="50.0" x2="16.6667" y1="180.0" y2="237.735" /><line stroke="rgb(0%,0%,0%)" stroke-width="1" x1="50.0" x2="50.0" y1="180.0" y2="194.8148" /><line stroke="rgb(0%,0%,0%)" stroke-width="1" x1="42.1296" x2="42.1296" y1="193.6319" y2="208.4467" /><line stroke="rgb(0%,0%,0%)" stroke-width="1" x1="34.2593" x2="34.2593" y1="207.2638" y2="222.0786" /><line stroke="rgb(0%,0%,0%)" stroke-width="1" x1="26.3889" x2="26.3889" y1="220.8956" y2="235.7105" /><line stroke="rgb(0%,0%,0%)" stroke-width="1" x1="18.5185" x2="18.5185" y1="234.5275" y2="249.3423" /><line stroke="rgb(0%,0%,0%)" stroke-width="1" x1="10.6481" x2="10.6481" y1="248.1594" y2="262.9742" /><line stroke="rgb(0%,0%,0%)" stroke-width="1" x1="2.7778" x2="2.7778" y1="261.7913" y2="276.6061" /><line stroke="rgb(0%,0%,0%)" stroke-width="1" x1="-5.0926" x2="-5.0926" y1="275.4232" y2="290.238" /><line stroke="rgb(0%,0%,0%)" stroke-width="1" x1="50.0" x2="37.17" y1="180.0" y2="187.4074" /><line stroke="rgb(0%,0%,0%)" stroke-width="1" x1="45.8333" x2="33.0033" y1="187.2169" y2="194.6243" /><line stroke="rgb(0%,0%,0%)" stroke-width="1" x1="41.6667" x2="28.8367" y1="194.4338" y2="201.8412" /><line stroke="rgb(0%,0%,0%)" stroke-width="1" x1="37.5" x2="24.67" y1="201.6506" y2="209.058" /><line stroke="rgb(0%,0%,0%)" stroke-width="1" x1="33.3333" x2="20.5033" y1="208.8675" y2="216.2749" /><line stroke="rgb(0%,0%,0%)" stroke-width="1" x1="29.1667" x2="16.3367" y1="216.0844" y2="223.4918" /><line stroke="rgb(0%,0%,0%)" stroke-width="1" x1="25.0" x2="12.17" y1="223.3013" y2="230.7087" /><line stroke="rgb(0%,0%,0%)" stroke-width="1" x1="20.8333" x2="8.0033" y1="230.5181" y2="237.9256" /><line stroke="rgb(0%,0%,0%)" stroke-width="1" x1="50.0" x2="16.6667" y1="210.0" y2="267.735" /><line stroke="rgb(0%,0%,0%)" stroke-width="1" x1="50.0" x2="50.0" y1="210.0" y2="224.8148" /><line stroke="rgb(0%,0%,0%)" stroke-width="1" x1="42.1296" x2="42.1296" y1="223.6319" y2="238.4467" /><line stroke="rgb(0%,0%,0%)" stroke-width="1" x1="34.2593" x2="34.2593" y1="237.2638" y2="252.0786" /><line stroke="rgb(0%,0%,0%)" stroke-width="1" x1="26.3889" x2="26.3889" y1="250.8956" y2="265.7105" /><line stroke="rgb(0%,0%,0%)" stroke-width="1" x1="18.5185" x2="18.5185" y1="264.5275" y2="279.3423" /><line stroke="rgb(0%,0%,0%)" stroke-width="1" x1="10.6481" x2="10.6481" y1="278.1594" y2="292.9742" /><line stroke="rgb(0%,0%,0%)" stroke-width="1" x1="2.7778" x2="2.7778" y1="291.7913" y2="306.6061" /><line stroke="rgb(0%,0%,0%)" stroke-width="1" x1="-5.0926" x2="-5.0926" y1="305.4232" y2="320.238" /><line stroke="rgb(0%,0%,0%)" stroke-width="1" x1="50.0" x2="37.17" y1="210.0" y2="217.4074" /><line stroke="rgb(0%,0%,0%)" stroke-width="1" x1="45.8333" x2="33.0033" y1="217.2169" y2="224.6243" /><line stroke="rgb(0%,0%,0%)" stroke-width="1" x1="41.6667" x2="28.8367" y1="224.4338" y2="231.8412" /><line stroke="rgb(0%,0%,0%)" stroke-width="1" x1="37.5" x2="24.67" y1="231.6506" y2="239.058" /><line stroke="rgb(0%,0%,0%)" stroke-width="1" x1="33.3333" x2="20.5033" y1="238.8675" y2="246.2749" /><line stroke="rgb(0%,0%,0%)" stroke-width="1" x1="29.1667" x2="16.3367" y1="246.0844" y2="253.4918" /><line stroke="rgb(0%,0%,0%)" stroke-width="1" x1="25.0" x2="12.17" y1="253.3013" y2="260.7087" /><line stroke="rgb(0%,0%,0%)" stroke-width="1" x1="20.8333" x2="8.0033" y1="260.5181" y2="267.9256" /><line stroke="rgb(0%,0%,0%)" stroke-width="1" x1="50.0" x2="16.6667" y1="240.0" y2="297.735" /><line stroke="rgb(0%,0%,0%)" stroke-width="1" x1="50.0" x2="50.0" y1="240.0" y2="254.8148" /><line stroke="rgb(0%,0%,0%)" stroke-width="1" x1="42.1296" x2="42.1296" y1="253.6319" y2="268.4467" /><line stroke="rgb(0%,0%,0%)" stroke-width="1" x1="34.2593" x2="34.2593" y1="267.2638" y2="282.0786" /><line stroke="rgb(0%,0%,0%)" stroke-width="1" x1="26.3889" x2="26.3889" y1="280.8956" y2="295.7105" /><line stroke="rgb(0%,0%,0%)" stroke-width="1" x1="18.5185" x2="18.5185" y1="294.5275" y2="309.3423" /><line stroke="rgb(0%,0%,0%)" stroke-width="1" x1="10.6481" x2="10.6481" y1="308.1594" y2="322.9742" /><line stroke="rgb(0%,0%,0%)" stroke-width="1" x1="2.7778" x2="2.7778" y1="321.7913" y2="336.6061" /><line stroke="rgb(0%,0%,0%)" stroke-width="1" x1="-5.0926" x2="-5.0926" y1="335.4232" y2="350.238" /><line stroke="rgb(0%,0%,0%)" stroke-width="1" x1="50.0" x2="37.17" y1="240.0" y2="247.4074" /><line stroke="rgb(0%,0%,0%)" stroke-width="1" x1="45.8333" x2="33.0033" y1="247.2169" y2="254.6243" /><line stroke="rgb(0%,0%,0%)" stroke-width="1" x1="41.6667" x2="28.8367" y1="254.4338" y2="261.8412" /><line stroke="rgb(0%,0%,0%)" stroke-width="1" x1="37.5" x2="24.67" y1="261.6506" y2="269.058" /><line stroke="rgb(0%,0%,0%)" stroke-width="1" x1="33.3333" x2="20.5033" y1="268.8675" y2="276.2749" /><line stroke="rgb(0%,0%,0%)" stroke-width="1" x1="29.1667" x2="16.3367" y1="276.0844" y2="283.4918" /><line stroke="rgb(0%,0%,0%)" stroke-width="1" x1="25.0" x2="12.17" y1="283.3013" y2="290.7087" /><line stroke="rgb(0%,0%,0%)" stroke-width="1" x1="20.8333" x2="8.0033" y1="290.5181" y2="297.9256" /><line stroke="rgb(0%,0%,0%)" stroke-width="1" x1="50.0" x2="16.6667" y1="270.0" y2="327.735" /><line stroke="rgb(0%,0%,0%)" stroke-width="1" x1="50.0" x2="50.0" y1="270.0" y2="284.8148" /><line stroke="rgb(0%,0%,0%)" stroke-width="1" x1="42.1296" x2="42.1296" y1="283.6319" y2="298.4467" /><line stroke="rgb(0%,0%,0%)" stroke-width="1" x1="34.2593" x2="34.2593" y1="297.2638" y2="312.0786" /><line stroke="rgb(0%,0%,0%)" stroke-width="1" x1="26.3889" x2="26.3889" y1="310.8956" y2="325.7105" /><line stroke="rgb(0%,0%,0%)" stroke-width="1" x1="18.5185" x2="18.5185" y1="324.5275" y2="339.3423" /><line stroke="rgb(0%,0%,0%)" stroke-width="1" x1="10.6481" x2="10.6481" y1="338.1594" y2="352.9742" /><line stroke="rgb(0%,0%,0%)" stroke-width="1" x1="2.7778" x2="2.7778" y1="351.7913" y2="366.6061" /><line stroke="rgb(0%,0%,0%)" stroke-width="1" x1="-5.0926" x2="-5.0926" y1="365.4232" y2="380.238" /><line stroke="rgb(0%,0%,0%)" stroke-width="1" x1="50.0" x2="37.17" y1="270.0" y2="277.4074" /><line stroke="rgb(0%,0%,0%)" stroke-width="1" x1="45.8333" x2="33.0033" y1="277.2169" y2="284.6243" /><line stroke="rgb(0%,0%,0%)" stroke-width="1" x1="41.6667" x2="28.8367" y1="284.4338" y2="291.8412" /><line stroke="rgb(0%,0%,0%)" stroke-width="1" x1="37.5" x2="24.67" y1="291.6506" y2="299.058" /><line stroke="rgb(0%,0%,0%)" stroke-width="1" x1="33.3333" x2="20.5033" y1="298.8675" y2="306.2749" /><line stroke="rgb(0%,0%,0%)" stroke-width="1" x1="29.1667" x2="16.3367" y1="306.0844" y2="313.4918" /><line stroke="rgb(0%,0%,0%)" stroke-width="1" x1="25.0" x2="12.17" y1="313.3013" y2="320.7087" /><line stroke="rgb(0%,0%,0%)" stroke-width="1" x1="20.8333" x2="8.0033" y1="320.5181" y2="327.9256" /></svg>